# xmcd CD database file generated by OrangeCD 5.2
#
# Track frame offsets:
#	150
#	13897
#	26765
#	40367
#	53410
#	66652
#	80815
#	93705
#	107417
#	122232
#	135850
#	149907
#	164252
#	177022
#	190182
#	203977
#
# Disc length: 2899 seconds
#
# Revision: 1
# Processed by: cddbd v1.5.1PL0 Copyright (c) Steve Scherf et al.
# Submitted via: OrangeCD 5.2
#
DISCID=ea0b5110
DTITLE=Bix Beiderbecke - Masters of Jazz - Bix Beiderbecke
DYEAR=1900
DGENRE=Jazz
TTITLE0=Jazz Me Blues
TTITLE1=At the Jazz Band Ball
TTITLE2=Royal Garden Blues
TTITLE3=Sorry
TTITLE4=Singin' The Blues
TTITLE5=I'm Comin' Virginia
TTITLE6=Way Down Yonder In New Orleans
TTITLE7=For No Reason At All In "C"
TTITLE8=Goose Pimples
TTITLE9=Trumbology
TTITLE10=Ostrich Walk
TTITLE11=Riverboat Shuffle
TTITLE12=Lousiana
TTITLE13=Margie
TTITLE14=I'll Be A Friend With Pleasure
TTITLE15=Bessie Couldn't Help It
EXTD=
EXTT0=
EXTT1=
EXTT2=
EXTT3=
EXTT4=
EXTT5=
EXTT6=
EXTT7=
EXTT8=
EXTT9=
EXTT10=
EXTT11=
EXTT12=
EXTT13=
EXTT14=
EXTT15=
PLAYORDER=
